<mxfile host="Electron" modified="2024-05-11T06:46:22.571Z" agent="Mozilla/5.0 (X11; Linux x86_64) AppleWebKit/537.36 (KHTML, like Gecko) draw.io/24.2.5 Chrome/120.0.6099.109 Electron/28.1.0 Safari/537.36" etag="YLf01DLkW-nrK22kSEfO" version="24.2.5" type="device">
  <diagram id="C5RBs43oDa-KdzZeNtuy" name="Page-1">
    <mxGraphModel dx="1364" dy="843" grid="1" gridSize="10" guides="1" tooltips="1" connect="1" arrows="1" fold="1" page="1" pageScale="1" pageWidth="827" pageHeight="1169" math="0" shadow="0">
      <root>
        <mxCell id="WIyWlLk6GJQsqaUBKTNV-0" />
        <mxCell id="WIyWlLk6GJQsqaUBKTNV-1" parent="WIyWlLk6GJQsqaUBKTNV-0" />
        <mxCell id="niOlpmqDQ3_5XXG2mmuA-0" value="Welcome.vue" style="swimlane;whiteSpace=wrap;html=1;" vertex="1" parent="WIyWlLk6GJQsqaUBKTNV-1">
          <mxGeometry x="70" y="70" width="230" height="200" as="geometry" />
        </mxCell>
        <mxCell id="niOlpmqDQ3_5XXG2mmuA-2" value="Register" style="rounded=1;fillColor=#0057D8;strokeColor=none;html=1;whiteSpace=wrap;fontColor=#ffffff;align=center;verticalAlign=middle;fontStyle=0;fontSize=12;sketch=0;" vertex="1" parent="niOlpmqDQ3_5XXG2mmuA-0">
          <mxGeometry x="121" y="160" width="86" height="33" as="geometry" />
        </mxCell>
        <mxCell id="niOlpmqDQ3_5XXG2mmuA-3" value="login" style="rounded=1;fillColor=#0057D8;strokeColor=none;html=1;whiteSpace=wrap;fontColor=#ffffff;align=center;verticalAlign=middle;fontStyle=0;fontSize=12;sketch=0;" vertex="1" parent="niOlpmqDQ3_5XXG2mmuA-0">
          <mxGeometry x="121" y="127" width="86" height="33" as="geometry" />
        </mxCell>
        <mxCell id="niOlpmqDQ3_5XXG2mmuA-4" value="pass" style="whiteSpace=wrap;html=1;" vertex="1" parent="niOlpmqDQ3_5XXG2mmuA-0">
          <mxGeometry x="121" y="90" width="80" height="20" as="geometry" />
        </mxCell>
        <mxCell id="niOlpmqDQ3_5XXG2mmuA-5" value="username" style="whiteSpace=wrap;html=1;" vertex="1" parent="niOlpmqDQ3_5XXG2mmuA-0">
          <mxGeometry x="121" y="60" width="86" height="20" as="geometry" />
        </mxCell>
        <mxCell id="niOlpmqDQ3_5XXG2mmuA-6" value="" style="sketch=0;outlineConnect=0;fontColor=#232F3E;gradientColor=none;fillColor=#ED7100;strokeColor=none;dashed=0;verticalLabelPosition=bottom;verticalAlign=top;align=center;html=1;fontSize=12;fontStyle=0;aspect=fixed;pointerEvents=1;shape=mxgraph.aws4.container_registry_image;" vertex="1" parent="niOlpmqDQ3_5XXG2mmuA-0">
          <mxGeometry x="10" y="70" width="100" height="100" as="geometry" />
        </mxCell>
        <mxCell id="niOlpmqDQ3_5XXG2mmuA-8" value="Listado" style="swimlane;startSize=23;" vertex="1" parent="WIyWlLk6GJQsqaUBKTNV-1">
          <mxGeometry x="450" y="70" width="200" height="200" as="geometry" />
        </mxCell>
        <mxCell id="niOlpmqDQ3_5XXG2mmuA-9" style="edgeStyle=orthogonalEdgeStyle;rounded=0;orthogonalLoop=1;jettySize=auto;html=1;entryX=0;entryY=0.5;entryDx=0;entryDy=0;" edge="1" parent="WIyWlLk6GJQsqaUBKTNV-1" source="niOlpmqDQ3_5XXG2mmuA-3" target="niOlpmqDQ3_5XXG2mmuA-8">
          <mxGeometry relative="1" as="geometry" />
        </mxCell>
      </root>
    </mxGraphModel>
  </diagram>
</mxfile>
